<?xml version="1.0" standalone="no"?>
<!DOCTYPE svg PUBLIC "-//W3C//DTD SVG 20010904//EN"
 "http://www.w3.org/TR/2001/REC-SVG-20010904/DTD/svg10.dtd">
<svg version="1.0" xmlns="http://www.w3.org/2000/svg"
 width="1280.000000pt" height="1280.000000pt" viewBox="0 0 1280.000000 1280.000000"
 preserveAspectRatio="xMidYMid meet">
<metadata>
Created by potrace 1.15, written by Peter Selinger 2001-2017
</metadata>
<g transform="translate(0.000000,1280.000000) scale(0.100000,-0.100000)"
fill="#000000" stroke="none">
<path d="M6130 10150 c-1210 -103 -2277 -754 -2910 -1776 -292 -472 -473
-1001 -542 -1589 -17 -145 -17 -625 0 -770 57 -483 183 -909 387 -1310 531
-1044 1496 -1773 2650 -1999 159 -31 404 -57 600 -63 901 -26 1755 263 2477
840 121 96 414 385 516 509 481 582 784 1303 851 2023 20 215 20 225 7 225 -7
0 -233 -45 -502 -99 -745 -152 -788 -161 -795 -169 -4 -4 -16 -53 -28 -109
-143 -678 -607 -1296 -1234 -1642 -64 -35 -59 -38 -78 54 -15 77 -14 117 6
156 9 17 29 119 45 228 17 114 50 280 79 396 50 196 51 200 95 244 24 26 76
91 116 146 40 55 98 131 129 169 l56 69 7 156 c3 86 12 174 19 196 17 52 17
292 -1 364 -16 68 -35 101 -122 217 -62 83 -70 98 -78 156 -13 92 -43 180 -80
239 -44 67 -149 155 -235 196 -60 28 -83 33 -150 35 -52 1 -97 -5 -128 -15
-63 -22 -96 -21 -154 4 -57 25 -152 29 -393 15 -137 -8 -158 -7 -172 7 -27 28
-51 250 -28 273 11 11 30 165 30 244 0 53 -6 71 -42 121 -11 16 -20 58 -26
121 -8 89 -12 101 -47 150 -110 153 -165 194 -306 228 -101 24 -155 25 -234 4
-122 -31 -291 -168 -344 -277 -49 -100 -48 -192 4 -385 14 -51 25 -96 25 -99
0 -3 -11 -2 -24 1 -41 10 -49 -13 -31 -89 17 -75 55 -136 117 -190 35 -29 50
-36 78 -33 33 3 36 1 77 -72 76 -137 86 -196 46 -273 -8 -16 -58 -75 -112
-131 -53 -55 -113 -122 -134 -147 l-37 -46 -113 -6 c-206 -9 -352 -78 -509
-238 l-86 -89 -67 0 c-108 0 -201 -44 -292 -137 -76 -79 -153 -137 -165 -125
-10 10 -48 121 -48 139 0 28 -68 160 -112 218 -84 111 -156 297 -165 426 -6
83 -5 88 18 105 13 11 42 38 64 61 l41 42 32 -21 c28 -18 36 -19 62 -8 41 17
82 67 75 91 -5 14 2 24 23 36 57 33 89 116 93 237 2 83 1 85 -120 123 -47 14
-87 28 -89 29 -7 5 60 126 125 224 694 1049 2043 1417 3169 864 449 -221 832
-587 1077 -1029 87 -157 149 -308 222 -542 3 -8 42 -3 137 17 394 85 1113 241
1115 243 1 2 -16 66 -38 142 -252 871 -839 1647 -1609 2128 -473 296 -971 474
-1530 547 -178 24 -590 34 -760 20z m-814 -4576 c41 -80 125 -144 232 -179 58
-18 51 -12 271 -280 101 -122 109 -145 96 -258 -4 -34 -8 -92 -9 -129 -1 -61
-3 -68 -31 -89 -44 -35 -60 -56 -101 -136 l-37 -73 18 -149 19 -150 -28 -40
c-48 -69 -44 -69 -174 -22 -583 211 -1084 657 -1366 1214 -33 65 -57 119 -54
122 3 3 32 -2 64 -10 32 -9 118 -20 189 -25 72 -5 159 -14 195 -20 111 -20
254 -2 391 49 66 25 174 112 226 181 21 28 45 50 53 50 10 0 29 -23 46 -56z"/>
<path d="M9735 7111 c-181 -43 -454 -106 -605 -141 -151 -35 -276 -64 -278
-65 -4 -3 25 -166 31 -172 3 -3 34 2 69 11 127 31 877 215 1026 251 127 31
152 40 148 54 -3 9 -10 44 -17 79 -9 46 -16 62 -28 61 -9 0 -164 -36 -346 -78z"/>
<path d="M9505 6763 c-335 -80 -612 -147 -614 -149 -2 -2 0 -25 5 -52 l9 -48
624 143 c343 78 625 144 626 145 2 2 0 27 -2 56 -4 40 -9 52 -22 51 -9 -1
-290 -66 -626 -146z"/>
<path d="M10035 6620 c-327 -78 -1036 -242 -1081 -252 l-52 -10 -7 -110 c-4
-60 -5 -111 -3 -114 2 -2 292 58 644 134 l639 137 3 60 c4 69 -6 185 -16 184
-4 -1 -61 -14 -127 -29z"/>
</g>
</svg>
